<svg width="24" height="24" viewBox="0 0 24 24" fill="none" xmlns="http://www.w3.org/2000/svg">
<path d="M22.191 15.489L22.153 14.662L15.67 13.736L14.355 16.31C12.9666 15.5283 11.6974 14.5517 10.586 13.41C9.43156 12.3004 8.44789 11.0259 7.66697 9.62801L10.467 8.22801L7.66697 1.70801L6.90697 1.81801C5.61983 1.99531 4.42735 2.59296 3.51497 3.51801C0.34197 6.68701 1.58497 12.9 6.34297 17.657C9.32497 20.638 12.876 22.239 15.894 22.238C16.7375 22.2674 17.5784 22.1274 18.367 21.8263C19.1555 21.5252 19.8757 21.0691 20.485 20.485C21.1073 19.8208 21.5813 19.0319 21.8754 18.1705C22.1696 17.3092 22.2771 16.3951 22.191 15.489ZM19.071 19.071C16.771 21.371 11.59 20.071 7.75697 16.243C3.92397 12.415 2.62897 7.22901 4.92897 4.92901C5.35771 4.49451 5.88245 4.16672 6.46097 3.97201L7.88097 7.28501L6.77397 7.83801C6.53417 7.95811 6.32083 8.12498 6.14652 8.3288C5.97221 8.53262 5.84045 8.76926 5.759 9.02478C5.67756 9.28031 5.64807 9.54955 5.67228 9.81664C5.69649 10.0837 5.77391 10.3433 5.89997 10.58C6.77532 12.1482 7.87604 13.5794 9.16697 14.828C10.4159 16.1045 11.8414 17.1952 13.4 18.067C13.6402 18.1974 13.9041 18.2785 14.1761 18.3054C14.4481 18.3324 14.7228 18.3047 14.984 18.224C15.2394 18.1445 15.476 18.014 15.6795 17.8404C15.883 17.6668 16.0492 17.4537 16.168 17.214L16.815 15.92L20.182 16.401C20.1436 17.3954 19.7493 18.3429 19.071 19.071Z" fill="white"/>
</svg>
